<?xml version="1.0" encoding="UTF-8" standalone="no" ?>
<!DOCTYPE svg PUBLIC "-//W3C//DTD SVG 1.1//EN" "http://www.w3.org/Graphics/SVG/1.1/DTD/svg11.dtd">
<svg xmlns="http://www.w3.org/2000/svg" xmlns:xlink="http://www.w3.org/1999/xlink" version="1.1" width="1280" height="1024" viewBox="0 0 1280 1024" xml:space="preserve">
<desc>Created with Fabric.js 5.3.0</desc>
<defs>
</defs>
<g transform="matrix(1 0 0 1 640 512)" id="background-logo"  >
<rect style="stroke: none; stroke-width: 0; stroke-dasharray: none; stroke-linecap: butt; stroke-dashoffset: 0; stroke-linejoin: miter; stroke-miterlimit: 4; fill: rgb(47,51,73); fill-rule: nonzero; opacity: 1;"  paint-order="stroke"  x="-640" y="-512" rx="0" ry="0" width="1280" height="1024" />
</g>
<g transform="matrix(2.2612988208008957 0 0 2.2612988208008953 640.527195327892 512.2811708415423)" id="logo-logo"  >
<g style=""  paint-order="stroke"   >
		<g transform="matrix(5.1405630339755914 0 0 -5.1405630339755914 0 2.842171e-14)"  >
<path style="stroke: none; stroke-width: 1; stroke-dasharray: none; stroke-linecap: butt; stroke-dashoffset: 0; stroke-linejoin: miter; stroke-miterlimit: 4; fill: rgb(255,255,255); fill-rule: nonzero; opacity: 1;"  paint-order="stroke"  transform=" translate(3.1389999999999993, 6.999500000000005)" d="M 0 0 C 0.541 -0.616 1.22 -1.464 1.858 -2.339 C 2.492 -3.218 3.0860000000000003 -4.127 3.503 -4.833 C 3.923 -5.543 4.203 -6.016 4.203 -6.016 C 4.203 -6.016 4.073 -5.476 3.7540000000000004 -4.7059999999999995 C 3.4390000000000005 -3.9369999999999994 2.9190000000000005 -2.9459999999999997 2.2630000000000003 -2.0459999999999994 C 1.611 -1.142 0.83 -0.341 0.198 0.199 C -0.435 0.743 -0.906 1.034 -0.906 1.034 C -0.906 1.034 -0.544 0.62 0 0 M 8.287 -8.896 C 14.534 -6.593000000000001 21.362000000000002 -2.154000000000001 21.362000000000002 -2.154000000000001 C 26.560000000000002 0.9539999999999993 27.139000000000003 10.916 27.139000000000003 10.916 C 11.426000000000004 -7.940000000000001 -13.205999999999996 -13.123000000000001 -13.205999999999996 -13.123000000000001 C 3.6120000000000054 -20.326 9.586000000000006 -17.711000000000002 11.455000000000005 -16.109 C 7.470000000000006 -16.069000000000003 3.066000000000006 -15.081000000000001 3.066000000000006 -15.081000000000001 C 8.175000000000006 -15.627 12.214000000000006 -15.232000000000001 12.214000000000006 -15.232000000000001 C 15.981000000000005 -14.57 17.127000000000006 -12.035 17.476000000000006 -10.523000000000001 C 12.300000000000006 -12.220000000000002 6.915000000000006 -12.277000000000001 6.915000000000006 -12.277000000000001 C 13.311000000000007 -11.712000000000002 17.629000000000005 -9.366000000000001 17.629000000000005 -9.366000000000001 C 20.898000000000003 -7.267000000000001 21.500000000000004 -4.881000000000001 21.517000000000003 -3.4480000000000013 C 15.889 -6.644 8.287 -8.896 8.287 -8.896 M -5.57 -4.735 C -3.212 -2.0730000000000004 -1.8130000000000002 0.3620000000000001 -1.8130000000000002 0.3620000000000001 C -0.6750000000000003 2.7520000000000002 -1.6440000000000001 4.416 -2.3560000000000003 5.22 C -3.4770000000000003 1.6199999999999997 -5.606 -1.439 -5.606 -1.439 C -3.3579999999999997 2.394 -2.947 5.77 -2.947 5.77 C -2.819 8.456 -3.922 9.753 -4.723 10.338 C -5.181 5.881999999999999 -6.962 0.6919999999999984 -6.962 0.6919999999999984 C -5.753 5.137999999999998 -5.515 10.769999999999998 -5.515 10.769999999999998 C -5.181 14.947999999999997 -10.565 19.273999999999997 -10.565 19.273999999999997 C -6.241 2.844999999999999 -13.206 -13.123000000000001 -13.206 -13.123000000000001 C -2.392999999999999 -6.532000000000001 -1.4699999999999989 -2.115000000000002 -1.6239999999999988 -0.41800000000000104 C -3.2459999999999987 -2.648000000000001 -5.5699999999999985 -4.735000000000001 -5.5699999999999985 -4.735000000000001 M 4.617 -19.341 C 4.617 -19.341 4.523 -19.66 4.3469999999999995 -20.259 C 4.268999999999999 -20.562 4.146 -20.926000000000002 3.9739999999999993 -21.351 C 3.8199999999999994 -21.784 3.6219999999999994 -22.276 3.3469999999999995 -22.798 C 2.8419999999999996 -23.866 2.0909999999999993 -25.113 1.0239999999999996 -26.395999999999997 C -0.034000000000000474 -27.682 -1.4130000000000003 -29.016999999999996 -3.1650000000000005 -30.147999999999996 C -4.905 -31.288999999999994 -7.005000000000001 -32.251 -9.368 -32.775 C -10.544 -33.059 -11.785 -33.193999999999996 -13.059000000000001 -33.265 L -13.178 -33.273 L -13.353000000000002 -33.269000000000005 L -13.579000000000002 -33.26500000000001 L -14.031000000000002 -33.257000000000005 L -14.943000000000003 -33.232000000000006 C -15.569000000000003 -33.19700000000001 -16.274000000000004 -33.07500000000001 -16.946000000000005 -32.992000000000004 C -19.583000000000006 -32.533 -22.229000000000006 -31.569000000000003 -24.564000000000007 -29.983000000000004 C -26.897000000000006 -28.409000000000002 -28.931000000000008 -26.314000000000004 -30.449000000000005 -23.885000000000005 C -31.945000000000004 -21.442000000000004 -32.90200000000001 -18.676000000000005 -33.249 -15.885000000000005 C -33.381 -15.192000000000005 -33.356 -14.487000000000005 -33.401 -13.793000000000005 L -33.417 -13.272000000000004 L -33.415 -13.137000000000004 L -33.411 -13.076000000000004 L -33.402 -12.956000000000005 L -33.385 -12.714000000000006 L -33.318 -11.754000000000005 C -33.306 -11.146000000000004 -33.129 -10.387000000000004 -33.028 -9.714000000000006 C -32.937 -9.007000000000005 -32.702 -8.393000000000006 -32.54 -7.741000000000006 C -31.782 -5.183000000000006 -30.480999999999998 -2.912000000000006 -28.942999999999998 -1.0540000000000056 C -27.412 0.8199999999999945 -25.61 2.2579999999999942 -23.816999999999997 3.3109999999999946 C -22.037999999999997 4.405999999999994 -20.196999999999996 4.982999999999994 -18.586 5.382999999999995 C -17.764999999999997 5.539999999999995 -17.009999999999998 5.726999999999995 -16.287 5.749999999999995 C -15.572 5.820999999999994 -14.918999999999999 5.8639999999999946 -14.325999999999999 5.828999999999994 C -13.139 5.861999999999995 -12.219999999999999 5.643999999999995 -11.611999999999998 5.5659999999999945 C -10.994999999999997 5.471999999999994 -10.665999999999999 5.421999999999994 -10.665999999999999 5.421999999999994 C -10.665999999999999 5.421999999999994 -10.998 5.415999999999994 -11.623 5.403999999999995 C -12.256 5.385999999999995 -13.155999999999999 5.414999999999995 -14.29 5.233999999999995 C -14.860999999999999 5.187999999999994 -15.481 5.055999999999995 -16.147 4.8929999999999945 C -16.820999999999998 4.7679999999999945 -17.52 4.519999999999994 -18.267 4.280999999999994 C -19.729 3.7209999999999943 -21.349 2.9969999999999946 -22.884 1.8629999999999942 C -24.422 0.7479999999999942 -25.91 -0.6880000000000059 -27.171 -2.4240000000000057 C -28.427 -4.164000000000006 -29.407 -6.226000000000006 -29.997999999999998 -8.460000000000004 C -30.109999999999996 -9.021000000000004 -30.307 -9.596000000000004 -30.346999999999998 -10.151000000000005 C -30.400999999999996 -10.731000000000005 -30.537 -11.218000000000005 -30.528 -11.895000000000005 L -30.557 -12.858000000000004 L -30.564999999999998 -13.099000000000004 L -30.567999999999998 -13.220000000000004 L -30.569999999999997 -13.281000000000004 C -30.571999999999996 -13.355000000000004 -30.568999999999996 -13.213000000000005 -30.567999999999998 -13.238000000000005 L -30.566 -13.266000000000005 L -30.532 -13.713000000000005 C -30.48 -14.309000000000005 -30.504 -14.916000000000004 -30.377 -15.507000000000005 C -30.049 -17.896000000000004 -29.195 -20.239000000000004 -27.898999999999997 -22.308000000000007 C -26.632999999999996 -24.396000000000008 -24.916999999999998 -26.214000000000006 -22.935999999999996 -27.591000000000008 C -20.952999999999996 -28.956000000000007 -18.721999999999994 -29.93200000000001 -16.472999999999995 -30.40000000000001 C -15.912999999999995 -30.48400000000001 -15.405999999999995 -30.614000000000008 -14.813999999999995 -30.67300000000001 C -14.227999999999994 -30.71700000000001 -13.646999999999995 -30.76000000000001 -13.072999999999995 -30.803000000000008 C -11.953999999999995 -30.81200000000001 -10.849999999999994 -30.76900000000001 -9.792999999999996 -30.585000000000008 C -7.675999999999996 -30.239000000000008 -5.720999999999996 -29.561000000000007 -4.039999999999996 -28.67300000000001 C -2.3619999999999957 -27.77600000000001 -0.9459999999999957 -26.70500000000001 0.18700000000000472 -25.61900000000001 C 1.3130000000000046 -24.52700000000001 2.2070000000000047 -23.45700000000001 2.8340000000000045 -22.50000000000001 C 3.1680000000000046 -22.03100000000001 3.4260000000000046 -21.59200000000001 3.6490000000000045 -21.205000000000013 C 3.8850000000000042 -20.825000000000014 4.068000000000004 -20.48600000000001 4.196000000000004 -20.20100000000001 C 4.4710000000000045 -19.64000000000001 4.617000000000004 -19.34100000000001 4.617000000000004 -19.34100000000001" stroke-linecap="round" />
</g>
</g>
</g>
</svg>